<svg xmlns="http://www.w3.org/2000/svg" width="262.11" height="35" viewBox="0 0 262.11 35"><rect class="svg__rect" x="0" y="0" width="92.7" height="35" fill="#E4B517"/><rect class="svg__rect" x="90.7" y="0" width="171.41000000000003" height="35" fill="#FFEF97"/><path class="svg__text" d="M14.08 19.16L14.08 19.16L14.08 13.47L15.56 13.47L15.56 19.18Q15.56 20.03 15.99 20.48Q16.43 20.93 17.27 20.93L17.27 20.93Q18.98 20.93 18.98 19.13L18.98 19.13L18.98 13.47L20.46 13.47L20.46 19.17Q20.46 20.53 19.59 21.32Q18.72 22.12 17.27 22.12L17.27 22.12Q15.81 22.12 14.94 21.33Q14.08 20.55 14.08 19.16ZM24.59 19.42L24.59 19.42L26.08 19.42Q26.08 20.15 26.56 20.55Q27.04 20.95 27.93 20.95L27.93 20.95Q28.71 20.95 29.10 20.63Q29.49 20.32 29.49 19.80L29.49 19.80Q29.49 19.24 29.09 18.94Q28.70 18.63 27.66 18.32Q26.63 18.01 26.02 17.63L26.02 17.63Q24.86 16.90 24.86 15.72L24.86 15.72Q24.86 14.69 25.70 14.02Q26.54 13.35 27.88 13.35L27.88 13.35Q28.77 13.35 29.47 13.68Q30.17 14.01 30.56 14.61Q30.96 15.22 30.96 15.96L30.96 15.96L29.49 15.96Q29.49 15.29 29.07 14.91Q28.65 14.54 27.87 14.54L27.87 14.54Q27.14 14.54 26.74 14.85Q26.34 15.16 26.34 15.71L26.34 15.71Q26.34 16.18 26.77 16.50Q27.21 16.81 28.20 17.10Q29.20 17.40 29.80 17.78Q30.41 18.16 30.69 18.65Q30.97 19.13 30.97 19.79L30.97 19.79Q30.97 20.86 30.15 21.49Q29.33 22.12 27.93 22.12L27.93 22.12Q27.01 22.12 26.23 21.77Q25.46 21.43 25.02 20.83Q24.59 20.22 24.59 19.42ZM40.84 22L35.26 22L35.26 13.47L40.80 13.47L40.80 14.66L36.74 14.66L36.74 17.02L40.24 17.02L40.24 18.19L36.74 18.19L36.74 20.82L40.84 20.82L40.84 22ZM47.49 22L45.03 22L45.03 13.47L47.55 13.47Q48.68 13.47 49.56 13.97Q50.43 14.48 50.91 15.40Q51.39 16.33 51.39 17.52L51.39 17.52L51.39 17.95Q51.39 19.16 50.91 20.08Q50.43 21.00 49.53 21.50Q48.64 22 47.49 22L47.49 22ZM46.51 14.66L46.51 20.82L47.48 20.82Q48.65 20.82 49.27 20.09Q49.89 19.36 49.91 17.99L49.91 17.99L49.91 17.52Q49.91 16.13 49.30 15.40Q48.70 14.66 47.55 14.66L47.55 14.66L46.51 14.66ZM64.95 22L61.84 22L61.84 13.47L64.76 13.47Q66.21 13.47 66.96 14.05Q67.72 14.63 67.72 15.78L67.72 15.78Q67.72 16.36 67.40 16.83Q67.09 17.30 66.48 17.56L66.48 17.56Q67.17 17.75 67.55 18.26Q67.92 18.78 67.92 19.51L67.92 19.51Q67.92 20.71 67.15 21.36Q66.38 22 64.95 22L64.95 22ZM63.32 18.15L63.32 20.82L64.97 20.82Q65.66 20.82 66.06 20.47Q66.45 20.13 66.45 19.51L66.45 19.51Q66.45 18.18 65.09 18.15L65.09 18.15L63.32 18.15ZM63.32 14.66L63.32 17.06L64.77 17.06Q65.46 17.06 65.85 16.75Q66.24 16.43 66.24 15.86L66.24 15.86Q66.24 15.23 65.88 14.95Q65.52 14.66 64.76 14.66L64.76 14.66L63.32 14.66ZM74.43 18.86L71.57 13.47L73.22 13.47L75.18 17.51L77.14 13.47L78.78 13.47L75.92 18.86L75.92 22L74.43 22L74.43 18.86Z" fill="#FFFFFF"/><path class="svg__text" d="M104.46 17.80L104.46 17.80Q104.46 16.54 105.06 15.54Q105.66 14.55 106.72 13.99Q107.79 13.43 109.14 13.43L109.14 13.43Q110.31 13.43 111.25 13.83Q112.19 14.22 112.81 14.97L112.81 14.97L111.30 16.33Q110.45 15.40 109.28 15.40L109.28 15.40Q109.26 15.40 109.26 15.40L109.26 15.40Q108.18 15.40 107.52 16.06Q106.86 16.71 106.86 17.80L106.86 17.80Q106.86 18.50 107.16 19.04Q107.46 19.59 108.00 19.89Q108.54 20.20 109.24 20.20L109.24 20.20Q109.92 20.20 110.52 19.93L110.52 19.93L110.52 17.62L112.62 17.62L112.62 21.10Q111.90 21.61 110.96 21.89Q110.03 22.17 109.09 22.17L109.09 22.17Q107.77 22.17 106.71 21.61Q105.66 21.05 105.06 20.05Q104.46 19.06 104.46 17.80ZM119.03 22L116.60 22L120.31 13.60L122.65 13.60L126.37 22L123.90 22L123.24 20.37L119.69 20.37L119.03 22ZM121.46 15.93L120.38 18.61L122.54 18.61L121.46 15.93ZM132.72 22L130.52 22L130.52 13.60L132.48 13.60L135.43 18.45L138.32 13.60L140.27 13.60L140.29 22L138.11 22L138.09 17.55L135.92 21.17L134.87 21.17L132.72 17.67L132.72 22ZM152.00 18.96L152.00 18.96Q152.00 17.41 152.73 16.15Q153.46 14.90 154.80 14.18Q156.13 13.46 157.89 13.46L157.89 13.46Q159.56 13.46 160.86 14.14Q162.16 14.82 162.88 16.01Q163.61 17.20 163.61 18.67L163.61 18.67Q163.61 19.74 163.27 20.52Q162.92 21.29 162.33 21.69Q161.74 22.09 160.97 22.09L160.97 22.09Q160.34 22.09 159.88 21.83Q159.42 21.57 159.20 21.05L159.20 21.05Q158.62 22.09 157.26 22.09L157.26 22.09Q156.56 22.09 155.94 21.72Q155.33 21.34 154.97 20.66Q154.60 19.97 154.60 19.08L154.60 19.08Q154.60 18.19 154.96 17.51Q155.32 16.83 155.93 16.45Q156.54 16.08 157.26 16.08L157.26 16.08Q158.32 16.08 158.93 16.77L158.93 16.77L158.93 16.18L160.89 16.18L160.89 19.84Q160.89 20.22 161.03 20.39Q161.17 20.56 161.41 20.56L161.41 20.56Q162.17 20.56 162.17 18.70L162.17 18.70Q162.17 17.56 161.64 16.67Q161.10 15.78 160.13 15.29Q159.16 14.79 157.89 14.79L157.89 14.79Q156.63 14.79 155.65 15.33Q154.67 15.87 154.13 16.82Q153.59 17.78 153.59 18.96L153.59 18.96Q153.59 20.18 154.12 21.14Q154.65 22.09 155.61 22.63Q156.58 23.17 157.84 23.17L157.84 23.17Q159.12 23.17 160.23 22.64L160.23 22.64L160.67 23.92Q160.13 24.19 159.37 24.34Q158.61 24.50 157.84 24.50L157.84 24.50Q156.10 24.50 154.77 23.78Q153.44 23.05 152.72 21.79Q152.00 20.54 152.00 18.96ZM156.60 19.08L156.60 19.08Q156.60 19.73 156.93 20.10Q157.25 20.46 157.78 20.46L157.78 20.46Q158.31 20.46 158.64 20.10Q158.97 19.74 158.97 19.08L158.97 19.08Q158.97 18.43 158.64 18.07Q158.31 17.72 157.78 17.72L157.78 17.72Q157.25 17.72 156.93 18.08Q156.60 18.44 156.60 19.08ZM177.39 22L174.67 13.60L177.12 13.60L178.80 18.96L180.58 13.60L182.76 13.60L184.46 19.01L186.22 13.60L188.49 13.60L185.76 22L183.22 22L181.62 16.89L179.93 22L177.39 22ZM192.57 17.80L192.57 17.80Q192.57 16.55 193.18 15.55Q193.78 14.56 194.84 14.00Q195.91 13.43 197.24 13.43L197.24 13.43Q198.57 13.43 199.63 14.00Q200.69 14.56 201.30 15.55Q201.91 16.55 201.91 17.80L201.91 17.80Q201.91 19.05 201.30 20.04Q200.69 21.04 199.63 21.60Q198.57 22.17 197.24 22.17L197.24 22.17Q195.91 22.17 194.84 21.60Q193.78 21.04 193.18 20.04Q192.57 19.05 192.57 17.80ZM194.97 17.80L194.97 17.80Q194.97 18.51 195.27 19.05Q195.57 19.60 196.09 19.90Q196.60 20.20 197.24 20.20L197.24 20.20Q197.88 20.20 198.39 19.90Q198.91 19.60 199.21 19.05Q199.51 18.51 199.51 17.80L199.51 17.80Q199.51 17.09 199.21 16.54Q198.91 16 198.39 15.70Q197.88 15.40 197.24 15.40L197.24 15.40Q196.60 15.40 196.09 15.70Q195.57 16 195.27 16.54Q194.97 17.09 194.97 17.80ZM209.01 22L206.64 22L206.64 13.60L210.48 13.60Q211.62 13.60 212.46 13.98Q213.30 14.35 213.76 15.06Q214.21 15.76 214.21 16.71L214.21 16.71Q214.21 17.62 213.78 18.30Q213.36 18.98 212.57 19.36L212.57 19.36L214.38 22L211.83 22L210.31 19.77L209.01 19.77L209.01 22ZM209.01 15.47L209.01 17.93L210.33 17.93Q211.07 17.93 211.44 17.61Q211.81 17.29 211.81 16.71L211.81 16.71Q211.81 16.12 211.44 15.79Q211.07 15.47 210.33 15.47L210.33 15.47L209.01 15.47ZM225.39 22L219.00 22L219.00 13.60L221.38 13.60L221.38 20.11L225.39 20.11L225.39 22ZM233.78 22L229.80 22L229.80 13.60L233.78 13.60Q235.16 13.60 236.23 14.12Q237.29 14.63 237.88 15.58Q238.47 16.53 238.47 17.80L238.47 17.80Q238.47 19.07 237.88 20.02Q237.29 20.97 236.23 21.48Q235.16 22 233.78 22L233.78 22ZM232.18 15.50L232.18 20.10L233.68 20.10Q234.76 20.10 235.41 19.49Q236.07 18.88 236.07 17.80L236.07 17.80Q236.07 16.72 235.41 16.11Q234.76 15.50 233.68 15.50L233.68 15.50L232.18 15.50ZM242.61 21.24L242.61 21.24L243.39 19.49Q243.95 19.86 244.70 20.09Q245.44 20.32 246.16 20.32L246.16 20.32Q247.53 20.32 247.53 19.64L247.53 19.64Q247.53 19.28 247.14 19.11Q246.76 18.93 245.89 18.74L245.89 18.74Q244.94 18.53 244.30 18.30Q243.67 18.06 243.21 17.55Q242.76 17.03 242.76 16.16L242.76 16.16Q242.76 15.39 243.18 14.77Q243.60 14.15 244.43 13.79Q245.27 13.43 246.47 13.43L246.47 13.43Q247.30 13.43 248.11 13.62Q248.91 13.80 249.53 14.17L249.53 14.17L248.79 15.93Q247.59 15.28 246.46 15.28L246.46 15.28Q245.75 15.28 245.43 15.49Q245.11 15.70 245.11 16.04L245.11 16.04Q245.11 16.37 245.49 16.54Q245.88 16.71 246.73 16.89L246.73 16.89Q247.69 17.10 248.32 17.33Q248.95 17.56 249.41 18.07Q249.87 18.58 249.87 19.46L249.87 19.46Q249.87 20.21 249.45 20.83Q249.03 21.44 248.19 21.80Q247.35 22.17 246.15 22.17L246.15 22.17Q245.13 22.17 244.17 21.92Q243.21 21.67 242.61 21.24Z" fill="#000000" x="103.7"/></svg>